<svg xmlns="http://www.w3.org/2000/svg" version="1.1" xmlns:xlink="http://www.w3.org/1999/xlink" xmlns:svgjs="http://svgjs.dev/svgjs" width="1000" height="1000" viewBox="0 0 1000 1000"><rect width="1000" height="1000" fill="#0c1d36"></rect><g transform="matrix(0.7,0,0,0.7,150.0000000000001,106.25)"><svg viewBox="0 0 320 360" data-background-color="#0c1d36" preserveAspectRatio="xMidYMid meet" height="1125" width="1000" xmlns="http://www.w3.org/2000/svg" xmlns:xlink="http://www.w3.org/1999/xlink"><defs></defs><g id="tight-bounds" transform="matrix(1,0,0,1,0,0)"><svg viewBox="0 0 320 360" height="360" width="320"><g><svg></svg></g><g><svg viewBox="0 0 320 360" height="360" width="320"><g><path d="M20.961 227.22l3.726 4.658-1.863-6.056c-0.466-2.795-3.726 0.466-1.863 1.398M25.153 224.425c1.397 2.329 2.795 4.658 2.795 6.987 0 3.261 2.795 4.658 5.123 5.589-3.261-3.726-5.124-13.974-7.918-12.576M204.017 26.929c7.918 0 15.371-0.932 23.756 0.931 20.495 5.124 37.729 15.371 49.374 29.811l32.606 52.169c1.397 13.042 4.192 27.482 3.726 43.319 3.261 0 2.795-4.658 6.521-5.59-3.726 9.316-5.59 20.961-6.521 34.469-2.329-7.453 0-18.632 0.466-24.687-3.261 5.124-5.124 1.397-5.124-0.932 0.466-3.726-1.397-3.261-2.795-4.658-5.124-4.658-8.384-9.782-12.11-17.7 2.329-6.055 2.795-14.905-4.658-19.563-2.329-1.397-5.124-3.726-6.521-7.453-1.863-5.124-5.124-11.179-4.193-19.097 0.466-2.329-6.987 5.124-11.179 1.863-18.166-12.576-36.332-27.016-58.224-39.127-11.645 0-20.029-4.192-24.221-9.316-3.726-4.658-0.932-10.713 4.658-11.179 3.261 0 6.987-0.932 9.782 0.932 0.466-1.863 2.329-4.192 4.657-4.192M157.904 16.215l0.932 0.466c4.658 0.932 6.987 7.453 12.11 5.124 0 3.261 0.466 6.521-0.466 8.85-1.397 3.726-5.59 3.726-8.85 3.726-31.208-1.863-49.374 11.179-68.471 22.358-5.124 3.261-10.713 5.59-14.906 9.782-20.029 18.632-41.921 35.866-47.045 70.335l-4.192 38.195c-0.466 4.192-5.124 8.384-4.192 13.508l3.26 22.824c-3.261-3.261-5.124 0.932-4.192 2.795 0.466 1.397 2.329 6.055 5.124 1.863 3.726 6.987 7.453 20.495 12.576 26.55 15.837 18.632 36.332 35.4 53.101 52.169 4.192-0.932 7.453-0.932 8.384-3.727 1.397 2.795-1.397 5.59-3.726 6.056 7.453 4.658 15.837 8.85 27.016 9.781 14.44 0.932 27.948 3.261 40.524 6.522 6.521-1.863 13.042-2.795 20.029-3.261 2.329 0 3.726-3.726 6.521-4.658l0.466-4.658c2.795 4.192 2.329-1.397 0.466-4.192 3.261 2.795 4.192 5.124 5.589 6.987 0-1.397 3.726-6.521 3.727-0.466l0.931-6.055c1.397-0.932 1.863 5.124 3.261 0.931 1.397-4.192 4.192-0.932 6.987-2.329-0.932 1.863-0.466 5.59 2.794 3.261l3.727-3.261c2.329 5.59 6.055 3.261 7.918 2.329 20.495-13.042 40.99-28.413 60.553-43.784l-0.466 6.055 2.329-7.453c2.329 2.329 4.192 0.466 5.124-0.931 2.795-4.658 6.521-9.316 12.577-13.508-7.453 20.029-16.303 35.866-27.482 48.908l-4.658 5.59c0 3.261-0.932 7.453-4.658 7.918-1.863 0.466-5.59-0.932-8.384 1.863-1.397 1.863 3.261 5.59-0.466 2.795-3.261-2.329-6.521 0-10.248 0.932-2.795 0.932 1.863 3.726 2.795 5.589 0.932 1.863 1.863 3.726 1.398 6.056l-5.124-5.59c-6.055 3.261-9.782 9.316-14.906 13.974-2.329 1.863-1.397 5.124-1.397 7.918-3.261 0-6.987-0.932-8.85 0.932-1.397 1.863-0.932 4.658-0.932 7.453-4.658-0.466-5.124-7.453-9.315-6.056-4.192 0.932-8.85 1.397-12.577 3.727 2.795 5.59-4.658 2.329-3.726 3.26-6.987-4.192-13.042-7.453-20.495-4.658-15.837-5.124-35.4-2.795-49.84-0.931 0-2.329 0.466-4.658-0.466-5.124-0.932 2.329-3.726 1.397-3.26 1.397-8.85-6.055-17.7-9.782-27.016-14.905-8.384 0.932-16.303-3.261-18.632-5.59-6.521-6.055-13.974-2.795-20.029-4.192-13.042-3.261-17.7-16.769-19.098-26.084-0.932-4.658-4.658-6.521-6.055-6.056-6.055-19.563-15.371-37.263-22.824-55.429-1.863-4.658-1.397-9.316-1.397-14.44 2.329 0.932 4.658 0.466 4.192-2.794-2.329-15.371-7.918-27.016-13.974-38.195 3.261-15.837 3.726-34.469 11.179-48.443 6.521-12.576 18.632-19.098 27.016-29.811 2.795-3.726 2.795-8.85 5.59-12.11 9.316-9.316 18.632-19.098 28.879-27.482 4.658-3.726 10.247 0 17.234-1.397 2.329-8.384 11.645-15.837 20.495-13.508 3.726 0.932 11.179-8.85 13.508-9.782 3.726-1.397 1.863 3.726 1.863 6.987 8.85-6.987 20.961-10.713 32.14-14.906" fill="#f9cc0b" data-fill-palette-color="tertiary"></path></g><g transform="matrix(1,0,0,1,64,107.18373527717104)"><svg viewBox="0 0 192 145.63252944565792" height="145.63252944565792" width="192"><g><svg viewBox="0 0 192 145.63252944565792" height="145.63252944565792" width="192"><g><svg viewBox="0 0 192 145.63252944565792" height="145.63252944565792" width="192"><g transform="matrix(1,0,0,1,0,86.61558711644375)"><svg viewBox="0 0 192 59.016942329214174" height="59.016942329214174" width="192"><g><svg viewBox="0 0 192 59.016942329214174" height="59.016942329214174" width="192"><g><svg viewBox="0 0 192 34.6356515547116" height="34.6356515547116" width="192"><g transform="matrix(1,0,0,1,0,0)"><svg width="192" viewBox="1.0499999523162842 -37.5 210.62998962402344 38" height="34.6356515547116" data-palette-color="#f9cc0b"><path d="M35.7-18.1L35.7-18.1Q35.7-7.8 29.9-3.75L29.9-3.75Q24.55 0 15.2 0L15.2 0 1.05 0 1.05-0.95 4.35-0.95 4.35-34.05 1.05-34.05 1.05-35 16.5-35Q26.1-35 30.9-31.08 35.7-27.15 35.7-18.1ZM14.1-34.05L14.1-0.95 16-0.95Q21.05-0.95 23.23-4.53 25.4-8.1 25.4-16.5L25.4-16.5 25.4-19.4Q25.4-30.65 21.1-32.95L21.1-32.95Q19.05-34.05 15.3-34.05L15.3-34.05 14.1-34.05ZM51.4 0.5Q44.95 0.5 41.72-2.83 38.5-6.15 38.5-12.08 38.5-18 42.12-21.15 45.75-24.3 51.35-24.3L51.35-24.3Q62.7-24.3 62.25-12.9L62.25-12.9 48.15-12.9 48.15-10.95Q48.15-6.05 49.4-3.55 50.65-1.05 53.75-1.05L53.75-1.05Q59.55-1.05 61.35-7.25L61.35-7.25 62.25-7.1Q61.3-3.5 58.82-1.5 56.35 0.5 51.4 0.5L51.4 0.5ZM48.2-16.35L48.2-13.9 53.35-13.9 53.35-16.35Q53.35-20.4 52.87-21.88 52.4-23.35 50.97-23.35 49.55-23.35 48.87-21.78 48.2-20.2 48.2-16.35L48.2-16.35ZM64.34-22.9L62.3-22.9 62.3-23.8 77.25-23.8 77.25-22.9 74.09-22.9 80.09-6.3 85.5-22.9 82.15-22.9 82.15-23.8 88.9-23.8 88.9-22.9 86.7-22.9 79.3 0 73.59 0 64.34-22.9ZM101.99-13.9L89.39-13.9 89.39-15.4 101.99-15.4 101.99-13.9ZM105.54-33.9L105.54-35 123.54-35 123.54-33.9 118.24-33.9 118.24-1.1 120.04-1.1Q124.29-1.1 126.82-3.7 129.34-6.3 131.94-11.7L131.94-11.7 132.99-11.7 132.04 0 105.54 0 105.54-1.1 108.49-1.1 108.49-33.9 105.54-33.9ZM142.14-27.25Q139.49-27.25 138.36-28.6 137.24-29.95 137.24-31.95 137.24-33.95 138.46-35.25 139.69-36.55 142.19-36.55 144.69-36.55 145.99-35.38 147.29-34.2 147.29-32.02 147.29-29.85 146.04-28.55 144.79-27.25 142.14-27.25ZM134.59-22.9L134.59-23.8 146.84-23.8 146.84-0.9 149.64-0.9 149.64 0 134.79 0 134.79-0.9 137.54-0.9 137.54-22.9 134.59-22.9ZM150.74-22.9L150.74-23.8 162.79-23.8 162.79-19.2Q163.59-21.5 165.24-22.9 166.89-24.3 170.24-24.3L170.24-24.3Q177.99-24.3 177.99-15.95L177.99-15.95 177.99-0.9 180.79-0.9 180.79 0 166.64 0 166.64-0.9 168.69-0.9 168.69-17.15Q168.69-20.15 168.29-21.03 167.89-21.9 166.84-21.9L166.84-21.9Q165.24-21.9 164.01-19.8 162.79-17.7 162.79-14.7L162.79-14.7 162.79-0.9 164.94-0.9 164.94 0 150.74 0 150.74-0.9 153.49-0.9 153.49-22.9 150.74-22.9ZM211.68 0L197.78 0 197.78-0.9 200.08-0.9 194.43-12.5 193.48-12.25 193.48-0.9 195.78-0.9 195.78 0 181.43 0 181.43-0.9 184.18-0.9 184.18-36.6 181.23-36.6 181.23-37.5 193.48-37.5 193.48-13.25 194.28-13.55 205.53-22.9 200.83-22.9 200.83-23.8 210.68-23.8 210.68-22.9 207.18-22.9 201.23-17.85 209.88-0.9 211.68-0.9 211.68 0Z" opacity="1" transform="matrix(1,0,0,1,0,0)" fill="#f9cc0b" class="undefined-text-0" data-fill-palette-color="primary" id="text-0"></path></svg></g></svg></g><g transform="matrix(1,0,0,1,0,39.689824372181334)"><svg viewBox="0 0 192 19.327117957032836" height="19.327117957032836" width="192"><g transform="matrix(1,0,0,1,0,0)"><svg width="192" viewBox="1.0499999523162842 -36.54999923706055 370.010009765625 37.25" height="19.327117957032836" data-palette-color="#f9cc0b"><path d="M28.25-3Q28.75-1.35 29.55-0.5L29.55-0.5Q28.6 0.55 26.85 0.55L26.85 0.55Q25.75 0.55 24.98 0.08 24.2-0.4 24-1.25L24-1.25 21.15-10.85 8.4-10.85 6.1-2.9Q5.8-1.7 5.8-1.15L5.8-1.15Q5.8-0.3 6.15 0.1L6.15 0.1Q4.9 0.55 3.65 0.55L3.65 0.55Q2.3 0.55 1.68 0.08 1.05-0.4 1.05-1.45L1.05-1.45Q1.05-2.3 1.6-3.95L1.6-3.95 12-34.65Q13.8-35.35 15.8-35.35L15.8-35.35Q18-35.35 18.45-33.75L18.45-33.75 28.25-3ZM9.2-13.5L20.35-13.5 14.7-32.4 9.2-13.5ZM38.8 0.5Q36.45 0.5 35.12-1.05 33.8-2.6 33.8-5.35L33.8-5.35 33.8-34.05Q33.8-35.25 34.52-35.9 35.25-36.55 36.45-36.55L36.45-36.55Q38-36.55 39.05-35.5L39.05-35.5Q38.6-34.05 38.47-32 38.35-29.95 38.35-25.75L38.35-25.75 38.3-5.65Q38.3-3 40.2-3L40.2-3Q40.75-3 41.25-3.25 41.75-3.5 41.95-3.95L41.95-3.95Q42.55-3.15 42.55-2.25L42.55-2.25Q42.55-1.05 41.45-0.28 40.35 0.5 38.8 0.5L38.8 0.5ZM52.5 0.5Q50.15 0.5 48.82-1.05 47.5-2.6 47.5-5.35L47.5-5.35 47.5-34.05Q47.5-35.25 48.22-35.9 48.95-36.55 50.15-36.55L50.15-36.55Q51.7-36.55 52.75-35.5L52.75-35.5Q52.3-34.05 52.17-32 52.05-29.95 52.05-25.75L52.05-25.75 52-5.65Q52-3 53.9-3L53.9-3Q54.45-3 54.95-3.25 55.45-3.5 55.65-3.95L55.65-3.95Q56.25-3.15 56.25-2.25L56.25-2.25Q56.25-1.05 55.15-0.28 54.05 0.5 52.5 0.5L52.5 0.5ZM74.69-29.75Q73.44-29.75 72.59-30.6 71.74-31.45 71.74-32.65L71.74-32.65Q71.74-33.9 72.59-34.75 73.44-35.6 74.69-35.6L74.69-35.6Q75.89-35.6 76.74-34.75 77.59-33.9 77.59-32.65L77.59-32.65Q77.59-31.45 76.74-30.6 75.89-29.75 74.69-29.75L74.69-29.75ZM77.14-6Q77.14-2.3 77.84-0.45L77.84-0.45Q76.79 0.6 75.24 0.6L75.24 0.6Q74.14 0.6 73.42-0.08 72.69-0.75 72.69-1.9L72.69-1.9 72.64-19.55Q72.64-23.3 71.94-25.15L71.94-25.15Q73.24-26.15 74.54-26.15L74.54-26.15Q75.69-26.15 76.39-25.5 77.09-24.85 77.09-23.7L77.09-23.7 77.14-6ZM106.49-6Q106.59-2.15 107.24-0.45L107.24-0.45Q106.09 0.6 104.64 0.6L104.64 0.6Q103.49 0.6 102.74-0.08 101.99-0.75 101.99-1.9L101.99-1.9 101.99-15.2Q101.94-19.5 100.84-21.55 99.74-23.6 97.09-23.6L97.09-23.6Q95.39-23.6 93.86-22.38 92.34-21.15 91.36-18.55 90.39-15.95 90.39-12L90.39-12Q90.39-5.75 90.49-3.8 90.59-1.85 91.14-0.4L91.14-0.4Q90.74 0 90.06 0.3 89.39 0.6 88.54 0.6L88.54 0.6Q87.34 0.6 86.61-0.13 85.89-0.85 85.89-2.1L85.89-2.1 85.89-20.05Q85.84-21.45 85.51-22.03 85.19-22.6 84.49-22.6L84.49-22.6Q83.54-22.6 83.19-21.9L83.19-21.9Q82.59-22.75 82.59-23.55L82.59-23.55Q82.59-24.7 83.44-25.4 84.29-26.1 85.79-26.1L85.79-26.1Q87.79-26.1 88.86-24.73 89.94-23.35 89.94-20.7L89.94-20.7 89.94-20.1Q90.99-23 93.19-24.58 95.39-26.15 98.44-26.15L98.44-26.15Q106.49-26.15 106.49-15.8L106.49-15.8 106.49-6ZM134.88 0.65Q129.38 0.65 126.31-2.88 123.23-6.4 123.23-12.7L123.23-12.7Q123.23-19.05 126.31-22.6 129.38-26.15 134.88-26.15L134.88-26.15Q140.38-26.15 143.43-22.6 146.48-19.05 146.48-12.7L146.48-12.7Q146.48-6.4 143.43-2.88 140.38 0.65 134.88 0.65L134.88 0.65ZM134.88-1.25Q138.18-1.25 139.91-4.2 141.63-7.15 141.63-12.7L141.63-12.7Q141.63-18.35 139.91-21.3 138.18-24.25 134.88-24.25L134.88-24.25Q131.53-24.25 129.81-21.3 128.08-18.35 128.08-12.7L128.08-12.7Q128.08-7.15 129.81-4.2 131.53-1.25 134.88-1.25L134.88-1.25ZM173.73-6Q173.83-2.15 174.48-0.45L174.48-0.45Q173.33 0.6 171.88 0.6L171.88 0.6Q170.73 0.6 169.98-0.08 169.23-0.75 169.23-1.9L169.23-1.9 169.23-15.2Q169.18-19.5 168.08-21.55 166.98-23.6 164.33-23.6L164.33-23.6Q162.63-23.6 161.11-22.38 159.58-21.15 158.61-18.55 157.63-15.95 157.63-12L157.63-12Q157.63-5.75 157.73-3.8 157.83-1.85 158.38-0.4L158.38-0.4Q157.98 0 157.31 0.3 156.63 0.6 155.78 0.6L155.78 0.6Q154.58 0.6 153.86-0.13 153.13-0.85 153.13-2.1L153.13-2.1 153.13-20.05Q153.08-21.45 152.76-22.03 152.43-22.6 151.73-22.6L151.73-22.6Q150.78-22.6 150.43-21.9L150.43-21.9Q149.83-22.75 149.83-23.55L149.83-23.55Q149.83-24.7 150.68-25.4 151.53-26.1 153.03-26.1L153.03-26.1Q155.03-26.1 156.11-24.73 157.18-23.35 157.18-20.7L157.18-20.7 157.18-20.1Q158.23-23 160.43-24.58 162.63-26.15 165.68-26.15L165.68-26.15Q173.73-26.15 173.73-15.8L173.73-15.8 173.73-6ZM200.08-6.6Q200.83-6.3 200.83-5.45L200.83-5.45Q200.83-4.9 200.48-4.05L200.48-4.05Q199.58-1.75 197.18-0.55 194.78 0.65 191.48 0.65L191.48 0.65Q185.93 0.65 182.75-2.8 179.58-6.25 179.58-12.65L179.58-12.65Q179.58-18.95 182.73-22.55 185.88-26.15 191.68-26.15L191.68-26.15Q195.88-26.15 198.45-24.25 201.03-22.35 201.03-18.85L201.03-18.85Q201.03-15.15 198.03-13.2 195.03-11.25 189.78-11.25L189.78-11.25Q187.13-11.25 184.48-11.55L184.48-11.55Q185.08-2.35 192.63-2.35L192.63-2.35Q195.33-2.35 197.3-3.48 199.28-4.6 200.08-6.6L200.08-6.6ZM191.48-24.25Q188.23-24.25 186.35-21.45 184.48-18.65 184.43-13.4L184.43-13.4Q185.48-13.3 187.78-13.2L187.78-13.2Q191.58-13.2 193.88-14.58 196.18-15.95 196.18-19.5L196.18-19.5Q196.18-22.1 194.83-23.18 193.48-24.25 191.48-24.25L191.48-24.25ZM227.77 0.7Q222.17 0.7 219.32-1.38 216.47-3.45 216.47-6.65L216.47-6.65Q216.47-9.75 219.47-9.75L219.47-9.75Q219.72-9.75 220.52-9.65L220.52-9.65Q220.37-9.05 220.37-8.3L220.37-8.3Q220.37-7.75 220.42-7.45L220.42-7.45Q220.62-4.7 222.7-3 224.77-1.3 228.32-1.3L228.32-1.3Q231.42-1.3 233.32-2.83 235.22-4.35 235.22-7.2L235.22-7.2Q235.22-9.05 234.37-10.45 233.52-11.85 231.92-13.03 230.32-14.2 227.47-15.8L227.47-15.8Q223.97-17.75 222-19.2 220.02-20.65 218.87-22.53 217.72-24.4 217.72-27L217.72-27Q217.72-31.2 220.77-33.27 223.82-35.35 228.57-35.35L228.57-35.35Q233.12-35.35 235.9-33.73 238.67-32.1 238.67-29.25L238.67-29.25Q238.67-26.95 236.37-26.75L236.37-26.75Q236.17-26.7 235.67-26.7L235.67-26.7Q235.07-26.7 234.77-26.8L234.77-26.8Q234.82-27.05 234.82-27.6L234.82-27.6Q234.82-28.4 234.67-29.05L234.67-29.05Q234.42-31.1 232.65-32.25 230.87-33.4 228.07-33.4L228.07-33.4Q225.57-33.4 223.8-32.25 222.02-31.1 222.02-28.5L222.02-28.5Q222.02-26.65 222.9-25.28 223.77-23.9 225.4-22.75 227.02-21.6 229.97-19.95L229.97-19.95Q233.07-18.3 235.15-16.8 237.22-15.3 238.47-13.25 239.72-11.2 239.72-8.55L239.72-8.55Q239.72-6.05 238.5-3.95 237.27-1.85 234.57-0.58 231.87 0.7 227.77 0.7L227.77 0.7ZM255.67 0.65Q250.17 0.65 247.1-2.88 244.02-6.4 244.02-12.7L244.02-12.7Q244.02-19.05 247.1-22.6 250.17-26.15 255.67-26.15L255.67-26.15Q261.17-26.15 264.22-22.6 267.27-19.05 267.27-12.7L267.27-12.7Q267.27-6.4 264.22-2.88 261.17 0.65 255.67 0.65L255.67 0.65ZM255.67-1.25Q258.97-1.25 260.69-4.2 262.42-7.15 262.42-12.7L262.42-12.7Q262.42-18.35 260.69-21.3 258.97-24.25 255.67-24.25L255.67-24.25Q252.32-24.25 250.6-21.3 248.87-18.35 248.87-12.7L248.87-12.7Q248.87-7.15 250.6-4.2 252.32-1.25 255.67-1.25L255.67-1.25ZM283.32 0.65Q277.72 0.65 274.62-2.78 271.52-6.2 271.52-12.65L271.52-12.65Q271.52-18.95 274.69-22.55 277.87-26.15 283.67-26.15L283.67-26.15Q287.77-26.15 290.04-24.38 292.32-22.6 292.32-19.8L292.32-19.8Q292.32-18 291.32-16.9 290.32-15.8 288.72-15.8L288.72-15.8Q287.02-15.8 286.17-16.85L286.17-16.85Q287.77-17.6 287.77-20.15L287.77-20.15Q287.77-22.25 286.52-23.25 285.27-24.25 283.22-24.25L283.22-24.25Q280.12-24.25 278.24-21.43 276.37-18.6 276.37-13.35L276.37-13.35Q276.37-7.65 278.59-5 280.82-2.35 284.57-2.35L284.57-2.35Q287.32-2.35 289.27-3.7 291.22-5.05 291.82-7.5L291.82-7.5Q292.57-7.15 292.57-6.1L292.57-6.1Q292.57-5.55 292.37-4.8L292.37-4.8Q291.57-2.2 289.17-0.78 286.77 0.65 283.32 0.65L283.32 0.65ZM301.22-29.75Q299.97-29.75 299.12-30.6 298.27-31.45 298.27-32.65L298.27-32.65Q298.27-33.9 299.12-34.75 299.97-35.6 301.22-35.6L301.22-35.6Q302.42-35.6 303.27-34.75 304.12-33.9 304.12-32.65L304.12-32.65Q304.12-31.45 303.27-30.6 302.42-29.75 301.22-29.75L301.22-29.75ZM303.67-6Q303.67-2.3 304.37-0.45L304.37-0.45Q303.32 0.6 301.77 0.6L301.77 0.6Q300.67 0.6 299.94-0.08 299.22-0.75 299.22-1.9L299.22-1.9 299.17-19.55Q299.17-23.3 298.47-25.15L298.47-25.15Q299.77-26.15 301.07-26.15L301.07-26.15Q302.22-26.15 302.92-25.5 303.62-24.85 303.62-23.7L303.62-23.7 303.67-6ZM334.56-3.95Q335.11-3.15 335.11-2.25L335.11-2.25Q335.11-1.1 334.04-0.3 332.96 0.5 331.41 0.5L331.41 0.5Q329.11 0.5 327.96-1.1 326.81-2.7 326.81-6.1L326.81-6.1 326.81-6.9Q325.26-3.5 322.51-1.48 319.76 0.55 316.36 0.55L316.36 0.55Q313.46 0.55 311.76-1.03 310.06-2.6 310.06-5.25L310.06-5.25Q310.06-8.25 312.36-10.33 314.66-12.4 318.41-13.45L318.41-13.45Q322.41-14.5 326.56-14.35L326.56-14.35 326.56-15.6Q326.56-20.05 325.19-22.15 323.81-24.25 320.61-24.25L320.61-24.25Q318.56-24.25 317.16-23.3 315.76-22.35 315.76-20.25L315.76-20.25Q315.76-19.15 316.29-18.13 316.81-17.1 317.86-16.7L317.86-16.7Q316.96-15.65 315.21-15.65L315.21-15.65Q313.41-15.65 312.31-16.98 311.21-18.3 311.21-20.1L311.21-20.1Q311.21-23 313.84-24.58 316.46-26.15 321.01-26.15L321.01-26.15Q326.26-26.15 328.74-23.55 331.21-20.95 331.21-15.35L331.21-15.35 331.21-5.65Q331.21-3 332.96-3L332.96-3Q333.36-3 333.81-3.25 334.26-3.5 334.56-3.95L334.56-3.95ZM318.31-2.55Q320.16-2.55 322.11-3.98 324.06-5.4 325.36-7.73 326.66-10.05 326.71-12.65L326.71-12.65Q324.86-12.75 322.81-12.48 320.76-12.2 319.36-11.6L319.36-11.6Q317.26-10.8 316.14-9.45 315.01-8.1 315.01-6.25L315.01-6.25Q315.01-4.65 315.81-3.6 316.61-2.55 318.31-2.55L318.31-2.55ZM344.41 0.5Q342.06 0.5 340.74-1.05 339.41-2.6 339.41-5.35L339.41-5.35 339.41-34.05Q339.41-35.25 340.13-35.9 340.86-36.55 342.06-36.55L342.06-36.55Q343.61-36.55 344.66-35.5L344.66-35.5Q344.21-34.05 344.08-32 343.96-29.95 343.96-25.75L343.96-25.75 343.91-5.65Q343.91-3 345.81-3L345.81-3Q346.36-3 346.86-3.25 347.36-3.5 347.56-3.95L347.56-3.95Q348.16-3.15 348.16-2.25L348.16-2.25Q348.16-1.05 347.06-0.28 345.96 0.5 344.41 0.5L344.41 0.5ZM360.46 0.65Q355.76 0.65 353.41-1 351.06-2.65 351.06-5.35L351.06-5.35Q351.06-6.65 351.73-7.5 352.41-8.35 353.86-8.35L353.86-8.35Q354.11-8.35 354.71-8.25L354.71-8.25Q354.56-7.6 354.56-7L354.56-7Q354.56-6.4 354.61-6.05L354.61-6.05Q354.76-3.9 356.41-2.63 358.06-1.35 360.91-1.35L360.91-1.35Q363.56-1.35 365.18-2.33 366.81-3.3 366.81-5.1L366.81-5.1Q366.81-6.35 366.13-7.23 365.46-8.1 364.43-8.7 363.41-9.3 361.56-10.15L361.56-10.15 360.01-10.85Q357.26-12.15 355.76-13.08 354.26-14 353.16-15.6 352.06-17.2 352.06-19.55L352.06-19.55Q352.06-22.9 354.63-24.55 357.21-26.2 361.21-26.2L361.21-26.2Q365.36-26.2 367.71-24.9 370.06-23.6 370.06-21.2L370.06-21.2Q370.06-20.2 369.53-19.53 369.01-18.85 367.91-18.75L367.91-18.75Q367.66-18.7 367.21-18.7L367.21-18.7Q366.71-18.7 366.41-18.8L366.41-18.8Q366.46-19.05 366.46-19.7L366.46-19.7Q366.46-20.5 366.26-21.05L366.26-21.05Q366.06-22.6 364.68-23.43 363.31-24.25 361.06-24.25L361.06-24.25Q358.96-24.25 357.58-23.45 356.21-22.65 356.21-20.95L356.21-20.95Q356.21-19.5 357.03-18.45 357.86-17.4 359.01-16.73 360.16-16.05 362.56-14.9L362.56-14.9 363.51-14.45Q366.01-13.25 367.48-12.35 368.96-11.45 370.01-10.05 371.06-8.65 371.06-6.65L371.06-6.65Q371.06-3.65 368.53-1.5 366.01 0.65 360.46 0.65L360.46 0.65Z" opacity="1" transform="matrix(1,0,0,1,0,0)" fill="#f9cc0b" class="undefined-text-1" data-fill-palette-color="secondary" id="text-1"></path></svg></g></svg></g></svg></g></svg></g><g transform="matrix(1,0,0,1,55.22368812962909,0)"><svg viewBox="0 0 81.55262374074182 81.56141429897401" height="81.56141429897401" width="81.55262374074182"><g><svg xmlns="http://www.w3.org/2000/svg" xmlns:xlink="http://www.w3.org/1999/xlink" version="1.1" x="0" y="0" viewBox="13.4818754196167 13.473999977111816 73.04512786865234 73.0530014038086" enable-background="new 0 0 100 100" xml:space="preserve" height="81.56141429897401" width="81.55262374074182" class="icon-icon-0" data-fill-palette-color="accent" id="icon-0"><g fill="#f9f9f9" data-fill-palette-color="accent"><path d="M81.842 18.16c-3.021-3.022-7.038-4.686-11.312-4.686-4.272 0-8.29 1.664-11.312 4.686l-14.75 14.752c-1.562 1.562-1.562 4.095 0 5.657 1.562 1.562 4.096 1.562 5.656 0l14.752-14.752c1.51-1.51 3.518-2.342 5.653-2.342s4.144 0.832 5.654 2.343c1.51 1.51 2.342 3.517 2.342 5.653s-0.832 4.144-2.342 5.654L61.433 49.875c-1.562 1.562-1.562 4.095 0 5.657 0.781 0.781 1.805 1.172 2.828 1.172 1.022 0 2.048-0.391 2.828-1.172L81.841 40.78c3.021-3.021 4.686-7.038 4.686-11.311C86.526 25.196 84.862 21.18 81.842 18.16z" fill="#f9f9f9" data-fill-palette-color="accent"></path><path d="M49.875 61.433L35.122 76.185c-1.51 1.51-3.517 2.342-5.653 2.342-2.135 0-4.143-0.832-5.654-2.342-3.116-3.117-3.116-8.19 0-11.309l14.752-14.751c1.563-1.562 1.563-4.095 0-5.657-1.56-1.562-4.095-1.562-5.655 0L18.158 59.22c-6.235 6.237-6.235 16.385 0.001 22.621 3.021 3.021 7.038 4.686 11.31 4.686 4.273 0 8.29-1.664 11.311-4.686l14.752-14.752c1.562-1.562 1.562-4.095 0-5.656C53.971 59.87 51.436 59.87 49.875 61.433z" fill="#f9f9f9" data-fill-palette-color="accent"></path><path d="M35.985 64.016c0.78 0.781 1.805 1.172 2.828 1.172s2.048-0.391 2.828-1.172l22.374-22.374c1.562-1.562 1.562-4.095 0-5.657-1.561-1.562-4.096-1.562-5.656 0L35.985 58.359C34.423 59.921 34.423 62.454 35.985 64.016z" fill="#f9f9f9" data-fill-palette-color="accent"></path></g></svg></g></svg></g><g></g></svg></g></svg></g></svg></g></svg></g></svg><rect width="320" height="360" fill="none" stroke="none" visibility="hidden"></rect></g></svg></g></svg>